<?xml version="1.0" encoding="UTF-8"?>
<svg id="Layer_1" xmlns="http://www.w3.org/2000/svg" viewBox="0 0 207 48">
  <defs>
    <style>
      .cls-1 {
        fill: #fff;
      }

      .cls-2 {
        fill: #25d366;
      }
    </style>
  </defs>
  <g>
    <path class="cls-1" d="M49.63,19.89c-2.24-.66-4.01-1.01-5.16-1.01-.93,0-1.72.14-2.32.46l-1.39,3.74h-.52l-1.77-3.74c.71-3.41,2.57-5.46,5.98-5.46,4.75,0,8.71,3.28,13.35,3.28h3.11l.19.38-1.97,3.58c-9.89,1.88-18.21,6.04-18.21,10.41s6.55,7.54,14.74,7.54c2.29,0,4.59-.22,6.83-.74l.3.66c-2.16,1.97-4.04,3.47-5.71,4.53-.87.57-2.59.85-4.86.85-8.55,0-12.86-4.23-12.86-11.25,0-6.25,4.75-11.12,10.27-13.14v-.08ZM56.54,22.16c.41,1.91,2.68,1.99,5.35,1.99h1.04v5.46h-.38c-5.11,0-7.59-.27-7.62-6.31l1.61-1.15Z"/>
    <path class="cls-1" d="M70.44,9.1c-1.55,0-3.03.9-4.34,2.32-1.39,1.5-2.15,3.39-2.15,5.52,0,3.58,2.54,5.22,7.18,5.22,1.01,0,2.02-.03,2.98-.14.05.12.08.25.08.38,0,1.61-3.87,1.75-9.78,1.75h-1.47c-1.32,0-1.91,1.42-1.91,2.73s.59,2.73,1.91,2.73h.38c8.91,0,13.33-.43,13.33-7.54,0-6.28-2.49-12.97-6.2-12.97ZM65.43,15.22c0-.82,1.93-1.83,3.78-1.83s3.2,1.66,4.21,4.53c-4.29-.11-7.99-1.18-7.99-2.7Z"/>
    <path class="cls-1" d="M68.44-.13c1.26,1.12,2.29,2.27,3.11,3.39-.71,1.04-1.61,1.97-2.68,2.79-1.04-1.12-2.1-2.18-3.19-3.25l2.76-2.92Z"/>
    <path class="cls-1" d="M71.7-.13c1.26,1.12,2.29,2.27,3.11,3.39-.71,1.04-1.61,1.97-2.68,2.79-1.04-1.12-2.1-2.18-3.2-3.25l2.76-2.92Z"/>
    <path class="cls-1" d="M135.14,9.1c-1.55,0-3.03.9-4.34,2.32-1.39,1.5-2.15,3.39-2.15,5.52,0,3.58,2.54,5.22,7.18,5.22,1.01,0,2.02-.03,2.98-.14.05.12.08.25.08.38,0,1.61-3.87,1.75-9.78,1.75h-34.03c-1.32,0-1.91,1.42-1.91,2.73s.59,2.73,1.91,2.73h32.93c8.91,0,13.33-.43,13.33-7.54,0-6.28-2.49-12.97-6.2-12.97ZM130.13,15.22c0-.82,1.93-1.83,3.78-1.83s3.2,1.66,4.21,4.53c-4.29-.11-7.99-1.18-7.99-2.7Z"/>
    <path class="cls-1" d="M130.63-.13c1.26,1.12,2.29,2.27,3.11,3.39-.71,1.04-1.61,1.97-2.68,2.79-1.04-1.12-2.1-2.18-3.19-3.25l2.76-2.92Z"/>
    <path class="cls-1" d="M134.73-.13c1.26,1.12,2.29,2.27,3.11,3.39-.71,1.04-1.61,1.97-2.68,2.79-1.04-1.12-2.1-2.18-3.2-3.25l2.76-2.92Z"/>
    <path class="cls-1" d="M122.44,47.31c16.85-7.16,28.1-13.57,31.02-19.01,1.17-2.13,2.1-4.78,2.76-8.08l.33-.22c2.35,1.01,4.64,1.28,5.82,1.28s2.95-.52,2.95-2.51c0-2.84-.41-7.48-.71-10.84-.11-1.37-.36-2.4-.36-3.47s.22-1.88.74-2.54,1.17-1.34,2.13-2.05l.33.22c0,1.8,1.04,4.01,3,7.29l-2.46,1.86c.14,2.92.3,5.35.3,7.95,0,2.89-1.15,5.08-2.59,7.16,1.04,1.26,1.47,2.76,1.47,4.45,0,4.01-2.73,6.99-5.74,6.99-2.32,0-4.83-1.69-6.06-5.74h-.16c-.52,6.36-7.4,11.72-19.34,16.25-4.62.96-9.04,1.56-13.22,1.86l-.22-.85ZM157.89,25.9c.68,3.2,2.79,4.86,4.51,4.86.76,0,1.31-.19,1.5-.49-.25-2.02-2.51-3.96-5.9-4.53l-.11.16Z"/>
    <path class="cls-1" d="M181.7,29.61h0c-3.71,0-6.96-1.88-7.04-7.21-.03-3.11-.27-12.81-.98-19.53,1.01-1.09,2.08-2.1,3.14-3.03l.38.19c.44,3.93.49,10.08.49,13.9,0,2.87-.06,4.31-.06,6.55,0,2.73,1.58,3.85,4.06,3.85h0v5.27Z"/>
    <path class="cls-1" d="M81.39,22.25c.56-3.26,2.36-7.3,5.54-7.3,4.21,0,4.89,6.07,4.98,9.2h3.09v5.46h-3.48c-.64,3.69-2.1,6.51-3.82,8.18l-8.46-1.67v-.52c6.74-2.1,10.78-4.34,11.89-7-1.33.6-3.91.86-5.2.86-3.01,0-5.67-1.55-4.55-7.21ZM90.66,24.16c-.73-2.15-2.96-5.08-5.41-5.21-1.85-.13-2.96,1.63-3.26,2.88-.39,1.89,1.2,2.36,3.69,2.49l4.98-.16Z"/>
    <path class="cls-1" d="M191.37,18.26l.52.21-1.72,5.58c-.04.09-.04.17-.09.26h5.24c1.97,0,2.45-.86,3.22-2.53l1.59-3.52.52.21-1.37,4.51,7.04,1.72-3.05-5.5,1.72-2.96.39.09c1.12,2.88,2.36,5.45,1.29,8.76l-1.33,4.47-.3.17-7.26-1.85c-.43,1.03-.99,1.59-2.23,1.59h-4.59l-1.5-2.83c-.52,1.76-.99,2.83-2.66,2.83l-5.08.15h0v-5.27h0l4.87-.03c1.97,0,2.45-.86,3.22-2.53l1.59-3.52Z"/>
  </g>
  <g>
    <path class="cls-2" d="M5.66.11h21.57c3.16,0,5.73,2.57,5.73,5.73v14.77H5.66C2.5,20.61-.07,18.04-.07,14.88V5.83C-.07,2.67,2.5.11,5.66.11Z"/>
    <g>
      <path d="M10.27,7.03h-3.05v-1.09h7.42v1.09h-3.07v8.92h-1.3V7.03Z"/>
      <path d="M14.5,15.19c0-.55.37-.94.89-.94s.87.39.88.94c0,.52-.35.93-.89.93s-.89-.41-.88-.93Z"/>
      <path d="M17.92,6.08c.79-.13,1.73-.22,2.75-.22,1.85,0,3.18.44,4.06,1.26.9.81,1.42,1.97,1.42,3.58s-.51,2.97-1.44,3.9c-.95.93-2.5,1.44-4.44,1.44-.93,0-1.7-.04-2.35-.11V6.08ZM19.22,14.94c.33.05.81.06,1.3.06,2.77,0,4.27-1.54,4.27-4.25.02-2.37-1.32-3.86-4.05-3.86-.67,0-1.17.06-1.52.13v7.91Z"/>
    </g>
  </g>
</svg>